<svg width="1646" height="339" viewBox="0 0 1646 339" fill="none" xmlns="http://www.w3.org/2000/svg">
<g clip-path="url(#clip0_1359_60)">
<path d="M483.002 280.799C468.752 280.799 456.552 277.249 446.402 270.099C436.252 262.949 429.452 253.349 426.002 241.249L429.552 236.399V264.899C429.552 269.849 428.302 273.649 425.802 276.249C423.302 278.849 419.702 280.149 414.952 280.149C410.202 280.149 406.852 278.849 404.252 276.249C401.652 273.649 400.352 269.899 400.352 264.899V62.1993C400.352 57.2493 401.652 53.4993 404.252 51.0493C406.852 48.5493 410.402 47.2993 414.952 47.2993C419.502 47.2993 423.352 48.5493 425.952 51.0493C428.552 53.5493 429.852 57.2493 429.852 62.1993V155.799H426.302C429.752 144.149 436.552 134.799 446.702 127.799C456.852 120.799 468.952 117.249 482.952 117.249C496.952 117.249 509.252 120.549 519.702 127.149C530.152 133.749 538.252 143.149 544.002 155.349C549.702 167.549 552.602 182.049 552.602 198.899C552.602 215.749 549.702 230.049 543.852 242.449C538.002 254.849 529.902 264.349 519.552 270.949C509.202 277.549 497.002 280.849 482.952 280.849L483.002 280.799ZM476.202 257.499C485.502 257.499 493.652 255.249 500.652 250.699C507.652 246.149 513.102 239.599 517.002 230.949C520.902 222.299 522.852 211.649 522.852 198.899C522.852 179.899 518.652 165.449 510.202 155.499C501.802 145.549 490.452 140.599 476.202 140.599C466.702 140.599 458.452 142.799 451.402 147.249C444.402 151.699 439.002 158.199 435.202 166.849C431.402 175.499 429.552 186.199 429.552 198.899C429.552 217.899 433.752 232.399 442.202 242.449C450.652 252.499 461.952 257.499 476.202 257.499Z" fill="#333333"/>
<path d="M657.544 280.8C641.994 280.8 628.494 277.45 617.044 270.75C605.594 264.05 596.744 254.55 590.494 242.25C584.244 229.95 581.094 215.5 581.094 198.85C581.094 186.35 582.894 175.05 586.444 165C589.994 154.95 595.144 146.35 601.844 139.25C608.544 132.15 616.594 126.65 625.994 122.9C635.394 119.1 645.894 117.25 657.594 117.25C673.144 117.25 686.644 120.6 698.094 127.3C709.544 134 718.394 143.45 724.644 155.65C730.894 167.85 734.044 182.25 734.044 198.9C734.044 211.4 732.244 222.75 728.694 232.9C725.144 243.05 719.994 251.7 713.294 258.8C706.594 265.95 698.544 271.4 689.144 275.15C679.744 278.95 669.244 280.8 657.544 280.8ZM657.544 257.5C667.044 257.5 675.294 255.25 682.344 250.7C689.344 246.15 694.744 239.6 698.544 230.95C702.344 222.3 704.194 211.65 704.194 198.9C704.194 179.9 699.994 165.45 691.544 155.5C683.144 145.55 671.794 140.6 657.544 140.6C648.244 140.6 640.094 142.8 633.094 147.25C626.094 151.7 620.644 158.2 616.744 166.85C612.844 175.5 610.894 186.2 610.894 198.9C610.894 217.9 615.144 232.4 623.694 242.45C632.244 252.5 643.494 257.5 657.544 257.5Z" fill="#333333"/>
<path d="M835.702 280.801C822.952 280.801 812.351 278.551 803.801 274.001C795.251 269.451 788.902 262.901 784.702 254.251C780.502 245.601 778.401 235.051 778.401 222.501V142.801H757.652C753.752 142.801 750.752 141.801 748.602 139.701C746.452 137.651 745.352 134.901 745.352 131.451C745.352 127.801 746.452 124.951 748.602 123.051C750.752 121.151 753.802 120.151 757.652 120.151H778.401V84.8507C778.401 79.9007 779.702 76.1507 782.302 73.7007C784.902 71.2007 788.552 69.9507 793.302 69.9507C798.052 69.9507 801.652 71.2007 804.152 73.7007C806.652 76.2007 807.852 79.9007 807.852 84.8507V120.151H847.052C851.152 120.151 854.301 121.101 856.451 123.051C858.601 125.001 859.702 127.801 859.702 131.451C859.702 134.901 858.601 137.651 856.451 139.701C854.301 141.751 851.152 142.801 847.052 142.801H807.852V219.901C807.852 231.801 810.352 240.751 815.302 246.801C820.252 252.851 828.452 255.851 839.902 255.851C844.002 255.851 847.452 255.501 850.252 254.701C853.052 253.951 855.551 253.551 857.701 253.551C859.651 253.351 861.301 254.001 862.701 255.501C864.101 257.001 864.802 259.801 864.802 263.901C864.802 266.951 864.302 269.701 863.352 272.151C862.402 274.651 860.501 276.301 857.701 277.151C855.101 278.001 851.652 278.801 847.352 279.601C843.052 280.351 839.152 280.751 835.702 280.751V280.801Z" fill="#333333"/>
<path d="M892.702 279.848C889.452 279.848 886.652 278.898 884.302 276.948C881.902 274.998 880.702 272.398 880.552 269.198C880.452 265.948 881.802 262.498 884.602 258.848L940.652 189.198V203.798L888.202 138.998C885.152 135.348 883.752 131.848 884.002 128.648C884.202 125.398 885.452 122.798 887.702 120.898C889.952 118.948 892.852 117.998 896.302 117.998C899.952 117.998 903.052 118.648 905.552 119.948C908.052 121.248 910.352 123.298 912.502 126.098L957.202 182.798H946.852L991.552 126.098C993.702 123.298 996.052 121.248 998.502 119.948C1001 118.648 1003.95 117.998 1007.4 117.998C1010.85 117.998 1013.7 118.948 1016 120.898C1018.25 122.848 1019.45 125.448 1019.55 128.648C1019.65 131.898 1018.3 135.348 1015.5 138.998L963.352 203.148V190.198L1019.05 258.848C1022.05 262.298 1023.45 265.648 1023.25 268.898C1023.05 272.148 1021.8 274.798 1019.5 276.848C1017.25 278.898 1014.35 279.948 1010.9 279.948C1007.2 279.948 1004.15 279.298 1001.65 277.998C999.152 276.698 996.852 274.648 994.702 271.848L946.452 211.298H956.502L908.902 271.848C906.752 274.448 904.402 276.448 901.952 277.848C899.452 279.248 896.402 279.948 892.702 279.948V279.848Z" fill="#333333"/>
<path d="M1075.69 338.45C1071.14 338.45 1067.59 337.151 1064.99 334.551C1062.39 331.951 1061.09 328.3 1061.09 323.55V132.8C1061.09 127.85 1062.39 124.1 1064.99 121.65C1067.59 119.15 1071.14 117.9 1075.69 117.9C1080.24 117.9 1084.04 119.15 1086.54 121.65C1089.04 124.15 1090.29 127.85 1090.29 132.8V162.3L1086.74 156.45C1090.19 144.6 1096.99 135.05 1107.14 127.95C1117.29 120.85 1129.49 117.25 1143.74 117.25C1157.99 117.25 1169.99 120.55 1180.34 127.15C1190.69 133.75 1198.79 143.15 1204.64 155.35C1210.49 167.55 1213.39 182.05 1213.39 198.9C1213.39 215.75 1210.54 230.05 1204.79 242.45C1199.09 254.85 1190.99 264.35 1180.49 270.95C1169.99 277.55 1157.74 280.85 1143.74 280.85C1129.74 280.85 1117.59 277.3 1107.49 270.15C1097.34 263 1090.54 253.65 1087.09 241.95H1090.64V323.55C1090.64 328.3 1089.34 331.951 1086.74 334.551C1084.14 337.151 1080.49 338.45 1075.74 338.45H1075.69ZM1136.94 257.5C1146.24 257.5 1154.39 255.25 1161.39 250.7C1168.39 246.15 1173.84 239.6 1177.74 230.95C1181.64 222.3 1183.59 211.65 1183.59 198.9C1183.59 179.9 1179.39 165.45 1170.94 155.5C1162.54 145.55 1151.19 140.6 1136.94 140.6C1127.44 140.6 1119.19 142.8 1112.14 147.25C1105.14 151.7 1099.74 158.2 1095.94 166.85C1092.14 175.5 1090.29 186.2 1090.29 198.9C1090.29 217.9 1094.49 232.4 1102.94 242.45C1111.34 252.5 1122.69 257.5 1136.94 257.5Z" fill="#333333"/>
<path d="M1324.16 280.798C1307.11 280.798 1292.46 277.498 1280.26 270.898C1268.06 264.298 1258.61 254.898 1251.91 242.698C1245.21 230.498 1241.86 216.098 1241.86 199.448C1241.86 182.798 1245.16 168.698 1251.76 156.348C1258.36 144.048 1267.41 134.448 1278.96 127.498C1290.51 120.598 1303.76 117.148 1318.66 117.148C1329.26 117.148 1338.81 118.948 1347.31 122.498C1355.81 126.048 1363.11 131.198 1369.16 137.898C1375.21 144.598 1379.81 152.748 1382.91 162.348C1386.01 171.948 1387.61 182.798 1387.61 194.898C1387.61 198.348 1386.56 200.998 1384.51 202.848C1382.46 204.698 1379.51 205.598 1375.61 205.598H1264.81V186.798H1368.16L1362.66 191.348C1362.66 180.098 1361.01 170.548 1357.66 162.698C1354.31 154.798 1349.46 148.848 1343.06 144.698C1336.71 140.598 1328.76 138.548 1319.26 138.548C1308.91 138.548 1300.06 140.998 1292.71 145.848C1285.36 150.698 1279.76 157.498 1275.86 166.248C1271.96 174.998 1270.01 185.098 1270.01 196.548V198.498C1270.01 217.948 1274.66 232.598 1283.96 242.548C1293.26 252.498 1306.66 257.448 1324.11 257.448C1331.01 257.448 1338.11 256.598 1345.31 254.848C1352.56 253.148 1359.51 249.998 1366.21 245.448C1369.46 243.498 1372.41 242.598 1375.11 242.698C1377.81 242.798 1380.01 243.648 1381.76 245.298C1383.51 246.898 1384.56 248.848 1385.01 251.148C1385.46 253.398 1385.11 255.848 1384.06 258.448C1382.96 261.048 1380.91 263.298 1377.91 265.248C1370.76 270.198 1362.31 274.048 1352.46 276.748C1342.61 279.448 1333.21 280.798 1324.11 280.798H1324.16Z" fill="#333333"/>
<path d="M1439.45 280.151C1434.5 280.151 1430.7 278.851 1428.1 276.251C1425.5 273.651 1424.2 269.901 1424.2 264.901V132.751C1424.2 127.801 1425.5 124.051 1428.1 121.601C1430.7 119.101 1434.25 117.851 1438.8 117.851C1443.35 117.851 1446.85 119.101 1449.35 121.601C1451.85 124.101 1453.1 127.801 1453.1 132.751V157.701H1449.85C1453.3 144.751 1459.8 134.901 1469.3 128.201C1478.8 121.501 1490.8 117.751 1505.25 116.851C1508.7 116.651 1511.5 117.451 1513.65 119.301C1515.8 121.151 1517 124.201 1517.2 128.551C1517.4 132.651 1516.45 135.951 1514.3 138.451C1512.15 140.951 1508.8 142.401 1504.25 142.801L1498.4 143.101C1484.15 144.601 1473.2 149.251 1465.5 157.051C1457.85 164.801 1454 175.501 1454 189.101V264.901C1454 269.851 1452.75 273.651 1450.3 276.251C1447.8 278.851 1444.2 280.151 1439.45 280.151Z" fill="#333333"/>
<path d="M1616.6 280.801C1603.85 280.801 1593.25 278.551 1584.7 274.001C1576.15 269.451 1569.8 262.901 1565.6 254.251C1561.4 245.601 1559.3 235.051 1559.3 222.501V142.801H1538.55C1534.65 142.801 1531.65 141.801 1529.5 139.701C1527.35 137.651 1526.25 134.901 1526.25 131.451C1526.25 127.801 1527.35 124.951 1529.5 123.051C1531.65 121.151 1534.7 120.151 1538.55 120.151H1559.3V84.8507C1559.3 79.9007 1560.6 76.1507 1563.2 73.7007C1565.8 71.2007 1569.45 69.9507 1574.2 69.9507C1578.95 69.9507 1582.55 71.2007 1585.05 73.7007C1587.55 76.2007 1588.75 79.9007 1588.75 84.8507V120.151H1627.95C1632.05 120.151 1635.2 121.101 1637.35 123.051C1639.5 125.001 1640.6 127.801 1640.6 131.451C1640.6 134.901 1639.5 137.651 1637.35 139.701C1635.2 141.751 1632.05 142.801 1627.95 142.801H1588.75V219.901C1588.75 231.801 1591.25 240.751 1596.2 246.801C1601.15 252.851 1609.35 255.851 1620.8 255.851C1624.9 255.851 1628.35 255.501 1631.15 254.701C1633.95 253.951 1636.45 253.551 1638.6 253.551C1640.55 253.351 1642.2 254.001 1643.6 255.501C1645 257.001 1645.7 259.801 1645.7 263.901C1645.7 266.951 1645.2 269.701 1644.25 272.151C1643.3 274.651 1641.4 276.301 1638.6 277.151C1636 278.001 1632.55 278.801 1628.25 279.601C1623.95 280.351 1620.05 280.751 1616.6 280.751V280.801Z" fill="#333333"/>
<path d="M265.05 -0.000488281H60.15C26.9301 -0.000488281 0 26.9296 0 60.1495V265.049C0 298.269 26.9301 325.2 60.15 325.2H265.05C298.27 325.2 325.2 298.269 325.2 265.049V60.1495C325.2 26.9296 298.27 -0.000488281 265.05 -0.000488281Z" fill="#333333"/>
<path d="M121.405 102.197C72.9047 102.197 33.5547 141.547 33.5547 190.047C33.5547 238.547 72.9047 277.897 121.405 277.897C169.905 277.897 209.255 238.547 209.255 190.047C209.255 141.547 169.905 102.197 121.405 102.197ZM122.055 236.847C96.9547 236.847 76.5547 216.497 76.5547 191.347C76.5547 166.197 96.9047 145.847 122.055 145.847C147.205 145.847 167.555 166.197 167.555 191.347C167.555 216.497 147.205 236.847 122.055 236.847Z" fill="white"/>
<path d="M33.6094 47.1478C57.3094 47.1478 76.6094 66.3978 76.6094 90.1478V205.198H53.2594C42.4594 205.198 33.6594 196.398 33.6594 185.598V47.1478H33.6094Z" fill="white"/>
<path d="M280.302 102.198L229.202 190.048L291.652 278.048H230.202C211.802 251.198 192.552 224.848 174.002 198.098C168.802 190.598 172.952 179.148 167.552 168.548C157.852 149.448 137.202 131.498 116.852 133.148C105.752 134.048 84.5516 126.498 76.6016 133.598L89.3016 107.848C129.952 93.7978 171.302 107.448 196.152 141.848L220.752 102.148H280.302V102.198Z" fill="white"/>
</g>
<defs>
<clipPath id="clip0_1359_60">
<rect width="1645.75" height="338.45" fill="white"/>
</clipPath>
</defs>
</svg>
