<svg width="644" height="157" viewBox="0 0 644 157" fill="none" xmlns="http://www.w3.org/2000/svg">
<path d="M127.2 0C134.889 6.34312e-05 142.263 3.0544 147.7 8.49121C153.137 13.9283 156.192 21.303 156.192 28.9922V156.192H28.9922C21.303 156.192 13.9283 153.137 8.49121 147.7C3.05438 142.263 5.37314e-05 134.889 0 127.2V0H127.2ZM37.7148 40.4883C37.7116 41.6542 37.2464 42.7714 36.4209 43.5947C35.5954 44.4178 34.4773 44.8798 33.3115 44.8799H23.8672V124.812H38.1475V101.388L45.2637 97.2725C48.2492 95.5094 51.6599 94.5957 55.127 94.6318H106.775V94.7402C109.879 95.0969 112.743 96.5834 114.821 98.916C116.899 101.248 118.046 104.264 118.043 107.388V124.872H132.335V107.388C132.333 103.666 131.557 99.9853 130.058 96.5791C128.558 93.1728 126.367 90.1156 123.623 87.6006L123.261 87.21C122.895 86.8819 122.519 86.5619 122.123 86.2559C120.672 85.0948 119.104 84.0892 117.443 83.2559C116.28 82.6746 115.077 82.178 113.843 81.7686L130.091 72.3838L131.039 71.832C131.661 69.7642 132.063 67.6366 132.239 65.4844C132.311 64.6805 132.335 63.8523 132.335 63.0244C132.31 54.6365 128.966 46.5991 123.035 40.668C117.104 34.737 109.067 31.3936 100.68 31.3682H37.7148V40.4883ZM100.68 45.6602C105.272 45.6823 109.669 47.5141 112.92 50.7578C116.171 54.0017 118.011 58.3961 118.043 62.9883C118.044 63.8434 117.984 64.6974 117.863 65.5439C117.232 69.6552 115.155 73.4065 112.005 76.123C108.855 78.8396 104.839 80.3438 100.68 80.3643L73.751 80.46C70.2793 80.4179 66.8627 81.3319 63.875 83.1006L43.7148 94.7402L38.1475 97.9561V47.6758C38.1476 47.1414 38.3595 46.6289 38.7373 46.251C39.1153 45.8729 39.6285 45.6602 40.1631 45.6602H100.68Z" fill="#333333"/>
<path d="M204.76 127.89H188V28H201.09C209.923 28 218.75 28 227.57 28C240.57 28 253.77 37.28 257.57 49.61C258.938 54.1101 259.258 58.8635 258.507 63.5065C257.756 68.1496 255.952 72.5592 253.235 76.3981C250.517 80.237 246.957 83.4035 242.828 85.6553C238.699 87.9071 234.109 89.1846 229.41 89.39L259.06 128C252.87 128 247.87 128.44 243.01 127.79C240.79 127.5 238.39 125.41 236.87 123.5C226.32 110.36 216 97 204.76 82.72V127.89ZM204.84 75C212.68 75 220.28 75.27 227.84 74.91C233.3 74.65 240.56 68.18 241.55 63.61C243.28 55.61 240.06 48.39 234.63 45.52C225 40.39 214.74 44.22 204.84 43V75Z" fill="#333333"/>
<path d="M339.323 98H278.583C280.583 105.79 284.103 111.79 290.783 115.66C298.783 120.31 311.923 118.72 318.173 110.8C319.194 109.368 320.597 108.252 322.222 107.58C323.848 106.908 325.629 106.707 327.363 107C330.293 107.29 333.263 107.06 336.363 107.06C333.848 115.165 328.523 122.106 321.346 126.634C314.169 131.162 305.611 132.98 297.213 131.76C271.213 127.53 261.753 106.14 263.863 90.37C267.003 66.59 285.663 53.93 305.493 56.19C325.633 58.49 341.723 75.17 339.323 98ZM323.453 85.87C321.533 75.46 312.653 70.01 299.353 69.92C292.193 69.87 280.903 78.05 280.193 85.87H323.453Z" fill="#333333"/>
<path d="M566.608 93.35C565.728 72.49 584.388 54.88 604.938 55.01C626.448 55.14 643.638 72.94 643.298 93.09C642.918 115.23 627.498 131.35 605.208 131.83C584.148 132.28 565.778 114.88 566.608 93.35ZM628.608 93.35C630.188 81.85 617.748 68.76 604.798 69.12C591.848 69.48 580.498 78.91 580.718 93.63C580.948 108.06 590.898 117.53 604.578 117.72C618.258 117.91 629.998 105.87 628.618 93.35H628.608Z" fill="#333333"/>
<path d="M365.599 128.79H349.859V58.4H365.379C365.499 60.91 365.609 63.51 365.699 65.4C371.329 62.62 376.929 59.09 383.039 56.99C398.939 51.53 417.559 65.12 417.589 81.78C417.589 97.26 417.589 112.78 417.589 128.61H402.589C402.589 116.61 402.649 104.47 402.589 92.38C402.522 89.7693 402.187 87.1724 401.589 84.63C399.409 74.83 391.029 68.76 380.819 70.08C376.496 70.8046 372.575 73.0556 369.769 76.4244C366.964 79.7933 365.46 84.0565 365.529 88.44C365.799 101.75 365.599 115.06 365.599 128.79Z" fill="#333333"/>
<path d="M466.38 56.82V68.89H453.79V127.61H436.79V69.23H424V57.15H436.4V29.41H453.46V56.82H466.38Z" fill="#333333"/>
<path d="M486.772 68.89H473.852V57.17H486.392V29.42H503.452V56.8H516.202V68.88H503.812V127.6H486.812L486.772 68.89Z" fill="#333333"/>
<path d="M539.652 58.27V68.68C544.362 61.35 550.232 58.18 557.312 56.62C564.762 54.97 566.612 56.1 566.612 63.37V68.94C561.232 70.07 555.762 70.23 551.262 72.39C547.7 73.9637 544.689 76.5653 542.615 79.8614C540.541 83.1574 539.499 86.9977 539.622 90.89C539.622 103.36 539.622 115.83 539.622 128.66H523.922V58.27H539.652Z" fill="#333333"/>
</svg>
