<svg width="471" height="71" viewBox="0 0 471 71" fill="none" xmlns="http://www.w3.org/2000/svg">
<g clip-path="url(#clip0_1359_23)">
<path d="M13.1 1.77002L14.06 10.64C17.96 3.73002 24.55 0.27002 33.83 0.27002C40.65 0.27002 46.2 2.18002 50.47 6.00002L44.06 18.28C40.7 15.55 36.74 14.19 32.19 14.19C27.01 14.19 22.69 15.78 19.23 18.96C15.77 22.14 14.05 26.69 14.05 32.6V69.02H0V1.77002H13.1Z" fill="#333333"/>
<path d="M68.6156 40.65C69.2556 45.74 71.5456 49.84 75.5056 52.93C79.4656 56.02 84.4856 57.57 90.5756 57.57C94.2156 57.57 97.8756 56.91 101.556 55.59C105.236 54.27 108.086 52.52 110.086 50.34L119.226 59.21C115.856 62.85 111.566 65.67 106.336 67.67C101.106 69.67 95.7656 70.67 90.3056 70.67C79.3056 70.67 70.5056 67.44 63.9056 60.98C57.3156 54.52 54.0156 45.88 54.0156 35.06C54.0156 24.24 57.2856 16.37 63.8356 9.82C70.3856 3.27 78.8956 0 89.3556 0C100.636 0 109.406 3.46 115.686 10.37C121.966 17.28 124.466 27.38 123.186 40.65H68.6156ZM109.676 28.78C109.316 23.6 107.336 19.59 103.746 16.78C100.156 13.96 95.4956 12.55 89.7656 12.55C84.4956 12.55 79.9656 13.96 76.1956 16.78C72.4256 19.6 69.9856 23.6 68.8956 28.78H109.686H109.676Z" fill="#333333"/>
<path d="M200.799 1.63989L172.289 69.2999H156.869L128.219 1.63989H143.769L152.769 23.3299L164.639 54.5699L175.279 26.0599L185.369 1.63989H200.779H200.799Z" fill="#333333"/>
<path d="M265.664 10.44C272.164 17.12 275.414 25.47 275.414 35.47C275.414 45.47 272.204 53.91 265.794 60.5C259.384 67.09 250.944 70.39 240.494 70.39C230.044 70.39 221.764 67.09 215.394 60.5C209.024 53.91 205.844 45.56 205.844 35.47C205.844 25.38 209.054 17.01 215.464 10.37C221.874 3.72997 230.214 0.409973 240.494 0.409973C250.774 0.409973 259.164 3.74997 265.664 10.44ZM225.554 19.78C221.784 24.05 219.894 29.28 219.894 35.47C219.894 41.66 221.754 46.84 225.484 51.02C229.214 55.2 234.214 57.29 240.484 57.29C246.754 57.29 251.784 55.2 255.554 51.02C259.324 46.84 261.214 41.65 261.214 35.47C261.214 29.29 259.254 24.17 255.344 19.85C251.434 15.53 246.474 13.37 240.474 13.37C234.474 13.37 229.314 15.51 225.534 19.78H225.554Z" fill="#333333"/>
<path d="M345.867 10.4399C352.367 17.1199 355.617 25.4699 355.617 35.4699C355.617 45.4699 352.407 53.9099 345.997 60.4999C339.587 67.0899 331.147 70.3899 320.697 70.3899C310.247 70.3899 301.967 67.0899 295.597 60.4999C289.227 53.9099 286.047 45.5599 286.047 35.4699C286.047 25.3799 289.257 17.0099 295.667 10.3699C302.077 3.72991 310.417 0.409912 320.697 0.409912C330.977 0.409912 339.367 3.74991 345.867 10.4399ZM305.757 19.7799C301.987 24.0499 300.097 29.2799 300.097 35.4699C300.097 41.6599 301.957 46.8399 305.687 51.0199C309.417 55.1999 314.417 57.2899 320.697 57.2899C326.977 57.2899 331.997 55.1999 335.767 51.0199C339.537 46.8399 341.427 41.6499 341.427 35.4699C341.427 29.2899 339.467 24.1699 335.557 19.8499C331.647 15.5299 326.687 13.3699 320.687 13.3699C314.687 13.3699 309.527 15.5099 305.747 19.7799H305.757Z" fill="#333333"/>
<path d="M422.741 1.63989L438.841 54.5699L455.481 1.63989H471.171L447.571 69.2999H431.201L423.291 46.9299L416.741 23.4699L410.061 46.9299L402.151 69.2999H385.781L362.031 1.63989H377.851L394.491 54.5699L410.601 1.63989H422.741Z" fill="#333333"/>
</g>
<defs>
<clipPath id="clip0_1359_23">
<rect width="471" height="71" fill="white"/>
</clipPath>
</defs>
</svg>
