<svg width="1405" height="506" viewBox="0 0 1405 506" fill="none" xmlns="http://www.w3.org/2000/svg">
<g clip-path="url(#clip0_1359_32)">
<path d="M408.946 279.274C436.154 296.59 444.505 333.192 422.434 356.754C408.597 371.526 393.348 384.938 376.897 396.769C344.648 419.96 308.412 436.622 270.258 445.797C232.103 454.974 192.777 456.487 154.527 450.25C135.642 447.171 117.202 442.233 99.4572 435.531C69.285 424.136 61.3767 387.369 78.7118 360.132L179.153 202.317C196.488 175.08 232.598 167.037 259.805 184.353L408.946 279.274Z" fill="#333333"/>
<g style="mix-blend-mode:multiply">
<path d="M453.578 156.388C471.571 129.57 464.541 92.6591 434.856 79.9406C416.244 71.9664 396.885 65.8071 377.058 61.5801C338.191 53.2957 298.29 52.601 259.633 59.5396C220.976 66.478 184.321 80.912 151.76 102.017C135.684 112.437 120.762 124.382 107.184 137.664C84.0978 160.248 91.6003 197.131 118.419 215.124L273.81 319.377C300.629 337.37 336.956 330.215 354.949 303.397L453.578 156.388Z" fill="#333333"/>
</g>
<path d="M635.602 372.708C617.379 372.708 599.935 370.153 583.268 365.041C566.602 359.708 553.379 352.93 543.602 344.708L558.602 311.041C567.935 318.375 579.49 324.486 593.268 329.375C607.046 334.263 621.157 336.708 635.602 336.708C647.823 336.708 657.713 335.375 665.268 332.708C672.823 330.041 678.38 326.486 681.935 322.041C685.49 317.375 687.268 312.153 687.268 306.375C687.268 299.263 684.713 293.597 679.602 289.375C674.49 284.93 667.823 281.486 659.602 279.041C651.602 276.375 642.602 273.93 632.602 271.708C622.824 269.486 612.935 266.93 602.935 264.041C593.157 260.93 584.157 257.041 575.935 252.375C567.935 247.486 561.379 241.041 556.268 233.041C551.157 225.041 548.602 214.819 548.602 202.375C548.602 189.708 551.935 178.153 558.602 167.708C565.49 157.041 575.824 148.597 589.602 142.375C603.602 135.93 621.268 132.708 642.602 132.708C656.602 132.708 670.49 134.486 684.268 138.041C698.046 141.597 710.046 146.708 720.268 153.375L706.602 187.041C696.157 180.819 685.38 176.264 674.268 173.375C663.157 170.264 652.49 168.708 642.268 168.708C630.268 168.708 620.49 170.152 612.935 173.041C605.602 175.93 600.157 179.708 596.602 184.375C593.268 189.041 591.602 194.375 591.602 200.375C591.602 207.486 594.046 213.264 598.935 217.708C604.046 221.93 610.602 225.264 618.602 227.708C626.824 230.153 635.935 232.597 645.935 235.041C655.935 237.263 665.823 239.82 675.602 242.708C685.602 245.597 694.602 249.375 702.602 254.041C710.823 258.708 717.38 265.041 722.268 273.041C727.38 281.041 729.935 291.153 729.935 303.375C729.935 315.82 726.49 327.375 719.602 338.041C712.935 348.486 702.602 356.93 688.602 363.375C674.602 369.597 656.935 372.708 635.602 372.708ZM772.903 369.375V136.041H816.237V369.375H772.903ZM846.349 369.375L951.349 136.041H994.016L1099.35 369.375H1054.02L963.682 159.041H981.016L891.016 369.375H846.349ZM894.682 315.375L906.349 281.375H1032.35L1044.02 315.375H894.682ZM1101.88 369.375L1206.88 136.041H1249.55L1354.88 369.375H1309.55L1219.22 159.041H1236.55L1146.55 369.375H1101.88ZM1150.22 315.375L1161.88 281.375H1287.88L1299.55 315.375H1150.22Z" fill="#333333"/>
</g>
<defs>
<clipPath id="clip0_1359_32">
<rect width="1405" height="506" fill="white"/>
</clipPath>
</defs>
</svg>
