<svg width="344" height="90" viewBox="0 0 344 90" fill="none" xmlns="http://www.w3.org/2000/svg">
<path d="M189.07 30.6001H193.36C194.85 32.8401 195.73 34.1901 197.42 36.8401L198.42 35.6201C200.86 32.5413 204.379 30.5058 208.264 29.9264C212.149 29.3469 216.109 30.2671 219.34 32.5001C222.299 34.6267 224.388 37.7527 225.22 41.3001C226.997 47.4991 226.645 54.1147 224.22 60.0901C221.5 66.7101 216.37 70.3901 209.38 71.6101C205.681 72.2383 201.89 72.0713 198.26 71.1201C198.07 71.0701 197.87 71.0501 197.56 71.0001V72.2401C197.56 77.3201 197.56 82.4001 197.56 87.4801C197.56 88.2101 197.43 88.5601 196.56 88.6101C194.31 88.7301 192.08 88.9401 189.75 89.1201C189.27 69.5001 190.5 50.0801 189.07 30.6001ZM197.58 52.9001C197.58 57.0701 197.58 61.2401 197.58 65.4101C197.555 65.7708 197.636 66.131 197.814 66.4458C197.992 66.7606 198.258 67.016 198.58 67.1801C204.78 71.0901 212.44 69.0801 215.58 62.4701C218.537 56.3821 219.045 49.3918 217 42.9401C216.607 41.4149 215.869 40.0004 214.843 38.8058C213.816 37.6111 212.529 36.6683 211.08 36.0501C206.78 34.2201 201.88 35.3001 198.21 38.9301C197.835 39.3305 197.615 39.8518 197.59 40.4001C197.56 44.5601 197.58 48.7301 197.58 52.9001Z" fill="#333333"/>
<path d="M313.855 43.5701C313.855 42.1577 313.725 40.7484 313.465 39.3601C312.615 34.7901 310.155 31.5001 305.465 30.3601C303.021 29.6652 300.448 29.5567 297.955 30.0432C295.462 30.5297 293.118 31.5976 291.115 33.1601C289.475 34.4101 288.015 35.9201 286.405 37.3701C286.325 36.7001 286.245 36.0301 286.175 35.3701C286.105 34.7101 286.025 33.9701 285.965 33.2701C285.755 30.5901 285.765 30.5901 283.075 30.5901H277.875C279.195 42.9501 278.395 55.2301 278.615 67.5001V71.2201H286.505V69.84C286.505 60.5601 286.505 51.2701 286.505 41.9901C286.453 41.4343 286.554 40.875 286.798 40.3727C287.041 39.8703 287.417 39.4441 287.885 39.1401C290.765 37.0701 293.735 35.3001 297.425 35.2001C301.335 35.0901 304.185 36.9101 305.315 40.6201C305.778 42.2696 306.004 43.9768 305.985 45.6901C306.055 53.7601 305.985 61.8401 305.985 69.9101V71.1001V71.1601H313.855V61.6401C313.882 55.6201 313.882 49.5967 313.855 43.5701Z" fill="#333333"/>
<path d="M269.02 39.9901V30.5901H261.12V31.8301C261.12 41.1501 261.12 50.4701 261.12 59.8301C261.157 60.353 261.057 60.8765 260.829 61.3484C260.601 61.8204 260.253 62.2244 259.82 62.5201C257.08 64.6201 254.24 66.3901 250.63 66.5201C246.76 66.6401 244.04 64.9601 242.86 61.2701C242.358 59.5657 242.108 57.7969 242.12 56.0201C242.05 48.0201 242.12 39.9401 242.12 31.9101V30.6001H234.25V40.1201C234.25 46.0001 234.25 51.8868 234.25 57.7801C234.245 59.2589 234.376 60.7351 234.64 62.1901C235.53 66.9001 238.03 70.3001 242.87 71.4901C245.255 72.1347 247.76 72.1987 250.175 71.6768C252.59 71.1548 254.844 70.0621 256.75 68.4901C258.29 67.2601 259.65 65.8201 261.19 64.3901C262.94 67.0001 264.06 68.5901 265.58 71.1601H269.74C268.58 60.7601 268.99 50.3801 269.02 39.9901Z" fill="#333333"/>
<path d="M129.232 50.36H102.612C102.382 57.89 106.202 66.16 115.482 67.2C119.485 67.6317 123.532 67.0112 127.222 65.4C127.432 65.31 127.652 65.24 127.892 65.15C128.053 65.5752 128.058 66.0437 127.906 66.4723C127.754 66.9008 127.455 67.2614 127.062 67.49C120.992 72.2 110.492 74.06 102.832 68.79C98.6181 65.899 95.7174 61.46 94.7618 56.44C93.3218 49.73 94.1218 43.34 98.0218 37.52C103.262 29.73 114.252 27.31 122.022 32.29C123.784 33.472 125.274 35.0166 126.391 36.8204C127.509 38.6242 128.228 40.6458 128.502 42.75C128.978 45.2589 129.222 47.8063 129.232 50.36ZM121.352 46.85C121.352 43.18 121.002 39.71 119.232 36.56C118.697 35.5386 117.931 34.6559 116.995 33.9822C116.059 33.3085 114.978 32.8622 113.84 32.6787C112.701 32.4953 111.536 32.5797 110.436 32.9254C109.335 33.2711 108.331 33.8684 107.502 34.67C105.426 36.6658 104.001 39.2413 103.412 42.06C102.883 43.9914 102.631 45.9879 102.662 47.99L121.352 46.85Z" fill="#333333"/>
<path d="M153.143 63.5601C155.433 64.9001 157.573 66.3001 159.853 67.4401C162.922 69.0576 166.466 69.5325 169.853 68.7801C172.083 68.2801 174.083 67.3201 175.153 65.1501C175.768 63.9309 175.904 62.5256 175.533 61.2113C175.163 59.897 174.314 58.7692 173.153 58.0501C171.24 56.8255 169.234 55.7522 167.153 54.8401C164.243 53.5301 161.153 52.5301 158.543 50.6801C154.843 48.1101 152.843 44.6801 153.383 40.1301C153.923 35.5801 156.713 32.7401 160.763 31.0301C165.113 29.1901 169.603 29.5201 174.063 30.5401C175.621 30.9487 177.15 31.4564 178.643 32.0601C178.913 32.1801 179.223 32.3301 179.223 32.7401C179.223 34.4101 179.223 36.0801 179.223 37.9401C178.223 37.1601 177.293 36.4701 176.373 35.8301C173.373 33.7201 170.163 32.3601 166.373 32.6401C162.933 32.9001 160.293 35.1101 160.003 38.1601C159.713 41.2101 161.263 43.2301 163.783 44.5001C166.843 46.0401 170.013 47.3501 173.143 48.7601C175.597 49.7185 177.802 51.2193 179.593 53.1501C181.36 55.285 182.224 58.0247 182.001 60.7868C181.779 63.5488 180.488 66.1152 178.403 67.9401C175.083 70.9401 171.063 71.9401 166.743 71.9401C162.352 71.9404 158.005 71.0561 153.963 69.3401C153.691 69.2756 153.453 69.1115 153.295 68.8802C153.138 68.6488 153.073 68.367 153.113 68.0901C153.183 66.6001 153.143 65.0601 153.143 63.5601Z" fill="#333333"/>
<path d="M144.18 71.1301H136.43V12.2801L144.18 11.0901V71.1301Z" fill="#333333"/>
<path d="M65.88 17.7401L66.28 17.2801C68.4751 14.8729 71.0002 12.7889 73.78 11.0901H69.96C66.0923 13.0529 62.5778 15.6449 59.56 18.7601C53.5952 24.92 48.7464 32.0697 45.23 39.8901C44.83 40.7601 43.84 42.7301 42.89 44.6401C42.15 46.1201 41.41 47.6401 40.89 48.6401L40.59 49.2701L40.31 48.6301C39.31 46.4501 37.22 41.6301 36.4 39.9601C31.1087 28.6429 23.1803 18.7599 13.28 11.1401L0.5 11.0901C10.005 18.1492 17.9763 27.0663 23.93 37.3001C30.0159 48.1262 34.8759 59.597 38.42 71.5001H40.34C41.84 64.9501 45.13 52.5601 50.75 41.4301C58.5 26.0101 60.99 23.2501 65.88 17.7401Z" fill="#333333"/>
<path d="M100.807 17.7401L101.208 17.2801C103.404 14.8706 105.933 12.7863 108.717 11.0901H104.898C101.032 13.056 97.5177 15.6476 94.4975 18.7601C88.5305 24.9182 83.6814 32.0683 80.1675 39.8901C79.7575 40.7601 78.7775 42.7301 77.8175 44.6401L75.8175 48.6401L75.5175 49.2701L75.2375 48.6301C74.2375 46.4501 72.1475 41.6301 71.3375 39.9601C66.0473 28.6394 58.1147 18.7553 48.2075 11.1401L35.4375 11.0901C44.9421 18.1467 52.9106 27.0645 58.8575 37.3001C64.9468 48.1258 69.8102 59.5966 73.3575 71.5001H75.2775C76.7675 64.9501 80.0675 52.5601 85.6875 41.4301C93.4975 26.0101 95.9175 23.2501 100.807 17.7401Z" fill="#333333"/>
<path d="M328.923 30.58C337.229 30.58 343.963 23.8464 343.963 15.54C343.963 7.23364 337.229 0.5 328.923 0.5C320.616 0.5 313.883 7.23364 313.883 15.54C313.883 23.8464 320.616 30.58 328.923 30.58Z" fill="#333333"/>
<path d="M332.15 11.5C331.332 11.8813 330.581 12.3948 329.93 13.02C329.17 13.7228 328.499 14.5153 327.93 15.38C327.558 15.9228 327.224 16.4909 326.93 17.08C326.8 17.33 326.69 17.6 326.58 17.85C326.474 18.1229 326.354 18.3899 326.22 18.65C326.01 18.2 325.79 17.79 325.56 17.36L325.49 17.23C325.2 16.68 324.88 16.15 324.61 15.73C324.114 14.9646 323.576 14.2269 323 13.52C322.584 13.022 322.14 12.5479 321.67 12.1C321.442 11.888 321.198 11.6941 320.94 11.52H317.5L317.73 11.68C320.416 13.6949 322.566 16.3391 323.99 19.38C324.4 20.24 324.79 21.16 325.18 22.2L325.27 22.47C325.41 22.93 325.55 23.37 325.61 23.47H326.39V23.4C326.44 23.21 326.48 23.01 326.54 22.79C326.93 20.9168 327.517 19.0901 328.29 17.34C329.025 15.7003 330.04 14.2012 331.29 12.91L331.38 12.82C331.837 12.3445 332.363 11.94 332.94 11.62L333.23 11.45L332.15 11.5Z" fill="white"/>
<path d="M339.19 11.5C338.37 11.8834 337.617 12.3967 336.96 13.02C336.206 13.7281 335.535 14.5199 334.96 15.38C334.591 15.9251 334.257 16.4929 333.96 17.08C333.83 17.33 333.72 17.6 333.61 17.85C333.504 18.1229 333.384 18.3899 333.25 18.65C333.04 18.19 332.82 17.78 332.59 17.35L332.52 17.23C332.23 16.68 331.91 16.15 331.63 15.73C331.14 14.9627 330.606 14.2247 330.03 13.52C329.614 13.022 329.17 12.5479 328.7 12.1C328.472 11.888 328.228 11.6941 327.97 11.52H324.5L324.73 11.68C327.416 13.6949 329.566 16.3391 330.99 19.38C331.4 20.24 331.79 21.16 332.18 22.2C332.18 22.2 332.18 22.33 332.27 22.47C332.41 22.93 332.55 23.37 332.61 23.47H333.5V23.4C333.5 23.22 333.59 23.01 333.64 22.79C334.039 20.918 334.629 19.0918 335.4 17.34C336.131 15.6982 337.147 14.1986 338.4 12.91L338.49 12.82C338.947 12.3445 339.473 11.94 340.05 11.62L340.34 11.45L339.19 11.5Z" fill="white"/>
</svg>
