<svg width="180" height="192" viewBox="0 0 180 192" fill="none" xmlns="http://www.w3.org/2000/svg">
<g filter="url(#filter0_d_10_31)">
<mask id="path-1-inside-1_10_31" fill="white">
<path d="M123.22 126.308C97.6958 154.301 61.9202 163.335 43.3132 146.486C24.7062 129.638 30.3139 93.2869 55.8384 65.2943C81.3629 37.3017 117.139 28.2676 135.746 45.116C154.353 61.9645 148.745 98.3154 123.22 126.308ZM67.9672 76.2768C51.6315 94.192 48.0425 117.457 59.951 128.24C71.8595 139.023 94.7559 133.241 111.092 115.326C127.427 97.4102 131.016 74.1457 119.108 63.3627C107.199 52.5797 84.3028 58.3615 67.9672 76.2768Z"/>
</mask>
<path d="M123.22 126.308C97.6958 154.301 61.9202 163.335 43.3132 146.486C24.7062 129.638 30.3139 93.2869 55.8384 65.2943C81.3629 37.3017 117.139 28.2676 135.746 45.116C154.353 61.9645 148.745 98.3154 123.22 126.308ZM67.9672 76.2768C51.6315 94.192 48.0425 117.457 59.951 128.24C71.8595 139.023 94.7559 133.241 111.092 115.326C127.427 97.4102 131.016 74.1457 119.108 63.3627C107.199 52.5797 84.3028 58.3615 67.9672 76.2768Z" fill="#F4D738"/>
<path d="M123.22 126.308C97.6958 154.301 61.9202 163.335 43.3132 146.486C24.7062 129.638 30.3139 93.2869 55.8384 65.2943C81.3629 37.3017 117.139 28.2676 135.746 45.116C154.353 61.9645 148.745 98.3154 123.22 126.308ZM67.9672 76.2768C51.6315 94.192 48.0425 117.457 59.951 128.24C71.8595 139.023 94.7559 133.241 111.092 115.326C127.427 97.4102 131.016 74.1457 119.108 63.3627C107.199 52.5797 84.3028 58.3615 67.9672 76.2768Z" stroke="black" stroke-width="3.28" mask="url(#path-1-inside-1_10_31)"/>
</g>
<defs>
<filter id="filter0_d_10_31" x="32.3327" y="36.6345" width="117.673" height="120.52" filterUnits="userSpaceOnUse" color-interpolation-filters="sRGB">
<feFlood flood-opacity="0" result="BackgroundImageFix"/>
<feColorMatrix in="SourceAlpha" type="matrix" values="0 0 0 0 0 0 0 0 0 0 0 0 0 0 0 0 0 0 127 0" result="hardAlpha"/>
<feOffset dx="3.28" dy="2.18667"/>
<feComposite in2="hardAlpha" operator="out"/>
<feColorMatrix type="matrix" values="0 0 0 0 0 0 0 0 0 0 0 0 0 0 0 0 0 0 1 0"/>
<feBlend mode="normal" in2="BackgroundImageFix" result="effect1_dropShadow_10_31"/>
<feBlend mode="normal" in="SourceGraphic" in2="effect1_dropShadow_10_31" result="shape"/>
</filter>
</defs>
</svg>
