<svg width="271" height="250" viewBox="0 0 271 250" fill="none" xmlns="http://www.w3.org/2000/svg">
<path d="M221.322 194.556C220.834 189.339 219.229 184.288 216.615 179.746L216.567 179.709L119.35 35.4252C117.157 30.9496 114.079 26.9652 110.302 23.7128C106.525 20.4603 102.129 18.0075 97.3772 16.5025C92.6258 14.9976 87.6187 14.4717 82.6585 14.9568C77.6983 15.4419 72.888 16.9278 68.5185 19.3248C64.1491 21.7217 60.3112 24.9799 57.2368 28.9023C54.1625 32.8247 51.9156 37.3298 50.632 42.1454C49.3484 46.961 49.0547 51.9869 49.7687 56.9194C50.4827 61.8518 52.1896 66.5884 54.7862 70.8426L54.9914 71.1451C55.4319 71.8625 55.902 72.5577 56.3925 73.2428L153.426 217.752C157.852 224.77 164.515 230.09 172.339 232.853C180.162 235.615 188.689 235.658 196.54 232.975C204.391 230.292 211.107 225.04 215.602 218.067C220.098 211.094 222.11 202.809 221.314 194.55L221.322 194.556ZM59.368 71.274L57.9406 69.1436C53.3477 61.6856 51.8638 52.7238 53.8078 44.184C55.7518 35.6442 60.9685 28.2082 68.3368 23.4738C75.7051 18.7395 84.6369 17.0847 93.2128 18.8652C101.789 20.6458 109.324 25.7194 114.199 32.9958C119.075 40.2723 120.901 49.1707 119.286 57.7787C117.671 66.3868 112.743 74.0174 105.562 79.0308C98.3805 84.0442 89.5187 86.0401 80.8809 84.5897C72.2432 83.1392 64.5189 78.3581 59.368 71.274ZM156.45 215.82L67.5608 83.442C73.4175 86.9215 80.1239 88.7097 86.9353 88.6078C93.7466 88.506 100.396 86.5181 106.146 82.865C111.895 79.212 116.519 74.0367 119.505 67.9139C122.49 61.7912 123.72 54.9606 123.057 48.1809C123.016 47.7793 122.956 47.3695 122.908 46.9689L213.575 181.538C217.878 189.101 219.05 198.047 216.841 206.463C214.633 214.878 209.219 222.095 201.758 226.571C194.297 231.046 185.38 232.425 176.915 230.411C168.451 228.398 161.109 223.152 156.462 215.796L156.45 215.82Z" fill="black"/>
<path d="M89.4536 85.0113C83.6596 85.5658 77.8215 84.5968 72.5177 82.2001C67.2139 79.8035 62.6284 76.0626 59.2157 71.3479L57.7848 69.2119C54.0002 63.0287 52.3311 55.7814 53.0296 48.5651C53.7281 41.3488 56.7563 34.5557 61.6565 29.2122C66.5568 23.8686 73.0629 20.2651 80.1917 18.9459C87.3205 17.6268 94.6847 18.6638 101.172 21.9003C107.658 25.1367 112.915 30.3967 116.148 36.8855C119.381 43.3744 120.414 50.7394 119.091 57.8677C117.768 64.996 114.161 71.5004 108.815 76.3979C103.469 81.2953 96.6741 84.3198 89.4577 85.0144L89.4536 85.0113Z" fill="#87CEEB"/>
<path d="M187.836 231.239C181.695 231.845 175.505 230.724 169.963 228.002C164.421 225.28 159.747 221.066 156.47 215.834L67.5839 83.5877C73.4367 87.0662 80.1372 88.8564 86.9412 88.7595C93.7452 88.6625 100.386 86.6822 106.127 83.0384C111.868 79.3947 116.483 74.2301 119.461 68.1184C122.439 62.0067 123.663 55.1869 122.996 48.4167C122.955 48.0156 122.895 47.6064 122.847 47.2064L213.51 181.642C216.264 186.467 217.768 191.903 217.883 197.454C217.999 203.005 216.723 208.494 214.172 213.422C211.621 218.35 207.876 222.56 203.278 225.668C198.68 228.776 193.375 230.683 187.847 231.215L187.836 231.239Z" fill="#69D2E7"/>
</svg>
