<svg width="204" height="207" viewBox="0 0 204 207" fill="none" xmlns="http://www.w3.org/2000/svg">
<path d="M187.407 108.068L185.822 105.959L185.874 105.725L185.64 105.673L119.828 18.209L36.8573 3.51385L13.9341 172.968L184.84 109.037L185.269 109.132L185.326 108.875L187.407 108.068ZM117.908 21.3397L180.67 104.813L111.337 92.3726L42.5197 8.0088L117.908 21.3397ZM18.257 166.313L39.4494 9.64256L107.991 93.6899L18.257 166.313ZM25.2405 165.07L110.88 95.7674L178.21 107.849L25.2405 165.07Z" fill="black"/>
<path d="M180.612 104.845L111.239 92.3995L42.3896 7.91783L117.82 21.2684L180.612 104.845Z" fill="#FF6B6B"/>
<path d="M177.98 107.686L25.1254 164.934L110.708 95.6176L177.98 107.686Z" fill="#FF7A5C"/>
<path d="M107.949 93.8802L18.27 166.419L39.4447 9.91248L107.949 93.8802Z" fill="#FF7A5C"/>
</svg>
