<svg width="271" height="272" viewBox="0 0 271 272" fill="none" xmlns="http://www.w3.org/2000/svg">
<path d="M206.098 108.26C207.71 103.97 203.312 98.3621 193.014 91.5216C183.654 85.3094 170.538 78.8905 156.079 73.4461C141.621 68.0017 127.519 64.1791 116.367 62.6761C104.096 61.0232 97.0507 62.3449 95.4351 66.6092C94.3812 69.3677 95.8605 72.6993 99.8216 76.5628C102.264 78.8631 104.901 80.9484 107.703 82.7957L107.72 82.8436L107.824 82.851L108.526 83.3398C117.887 89.552 131.003 95.9708 145.462 101.415C159.92 106.86 174.022 110.682 185.174 112.185C197.427 113.849 204.472 112.528 206.098 108.26ZM190.214 109.143C180.404 102.651 166.472 95.739 152.895 90.6317C136.448 84.4504 120.548 80.3718 109.034 79.398C104.176 75.9887 97.7265 70.5635 98.755 67.8565C99.8865 64.8686 110.055 65.4009 115.891 66.19C126.778 67.6547 140.606 71.415 154.822 76.76C169.038 82.1051 181.905 88.4214 191.046 94.478C194.022 96.4299 196.821 98.6354 199.414 101.07C201.747 103.342 203.327 105.565 202.781 107.006C201.9 109.31 195.685 109.522 190.195 109.15L190.214 109.143Z" fill="black"/>
<path d="M208.561 216.993L238.926 121.076C242.439 111.772 236.275 99.6149 221.552 86.8419C207.284 74.4495 186.541 62.7566 163.155 53.9027C139.77 45.0488 116.472 40.0927 97.5687 39.9375C78.0887 39.7693 65.4182 44.8026 61.9038 54.1017L31.5395 150.018C28.3865 158.349 33.0057 168.965 44.573 180.273C45.9259 181.596 47.367 182.926 48.9122 184.264C63.1782 196.651 83.9232 208.349 107.312 217.196C130.7 226.044 153.995 231.006 172.89 231.17C192.377 231.325 205.042 226.293 208.561 216.993ZM65.2187 55.3577C68.1269 47.6609 79.9089 43.3359 97.5593 43.4721C116.043 43.62 138.902 48.5111 161.91 57.2148C184.918 65.9186 205.277 77.394 219.245 89.5188C220.719 90.8024 222.094 92.0693 223.37 93.3197C233.771 103.477 238.213 112.971 235.624 119.826C232.716 127.523 220.93 131.854 203.281 131.707C184.798 131.559 161.943 126.677 138.938 117.967C115.933 109.257 95.5654 97.7898 81.6036 85.6681C68.2777 74.1118 62.3329 63.0576 65.2219 55.3673L65.2187 55.3577ZM172.893 227.616C154.41 227.468 131.551 222.577 108.548 213.871C85.5444 205.166 65.1722 193.7 51.2088 181.574C37.8892 170.005 31.9156 158.96 34.8399 151.279L61.6773 64.7195C63.3511 70.7703 67.8316 77.4469 74.9247 84.382C76.2765 85.7068 77.7208 87.0359 79.2574 88.3693C93.5299 100.76 114.275 112.458 137.659 121.307C161.042 130.156 184.344 135.122 203.231 135.277C215.981 135.38 225.803 133.272 232.062 129.19L205.224 215.749C202.348 223.43 190.544 227.768 172.916 227.619L172.893 227.616Z" fill="black"/>
<path d="M235.6 119.764C238.198 112.908 233.751 103.421 223.346 93.2711C222.06 92.0101 220.684 90.7444 219.217 89.4738C205.235 77.3609 184.852 65.9017 161.815 57.2153C138.777 48.5289 115.891 43.6686 97.3746 43.5188C79.7115 43.3895 67.9084 47.7216 64.9762 55.4236C62.0439 63.1256 68.0289 74.1764 81.3547 85.6989C95.3298 97.8086 115.711 109.263 138.755 117.953C161.799 126.642 184.675 131.506 203.189 131.646C220.883 131.818 232.682 127.461 235.6 119.764ZM184.725 112.31C173.582 110.802 159.49 106.969 145.043 101.522C130.597 96.0763 117.488 89.6466 108.133 83.4297L107.431 82.9406L107.327 82.9332L107.311 82.8852C104.51 81.0366 101.875 78.9499 99.4337 76.6483C95.4746 72.7827 93.9951 69.45 95.047 66.6916C96.6514 62.4032 103.69 61.0842 115.958 62.7661C127.102 64.2738 141.194 68.1073 155.64 73.5534C170.087 78.9996 183.195 85.4293 192.55 91.6462C202.842 98.4917 207.246 104.126 205.628 108.392C204.011 112.658 196.982 113.974 184.725 112.31Z" fill="#2FFF2F"/>
<path d="M190.17 109.112C180.371 102.629 166.454 95.7286 152.891 90.6298C136.461 84.4589 120.578 80.3878 109.075 79.4168C104.222 76.0126 97.7799 70.5955 98.8077 67.8919C99.9385 64.9078 110.097 65.4381 115.927 66.2254C126.803 67.6868 140.617 71.4403 154.818 76.7764C169.019 82.1125 181.872 88.4188 191.004 94.4662C193.976 96.4151 196.773 98.6173 199.363 101.048C201.692 103.317 203.271 105.536 202.725 106.976C201.864 109.271 195.655 109.483 190.17 109.112Z" fill="black"/>
<path d="M172.944 227.621C154.449 227.474 131.586 222.579 108.569 213.871C85.5525 205.163 65.1821 193.689 51.2084 181.558C37.8885 169.982 31.914 158.938 34.8327 151.25L61.6781 64.6536C63.3574 70.7054 67.835 77.3867 74.9373 84.3281C76.2896 85.6535 77.7339 86.9816 79.2701 88.3124C93.5481 100.709 114.296 112.414 137.698 121.264C161.101 130.114 184.396 135.087 203.295 135.242C216.042 135.353 225.871 133.238 232.133 129.159L205.287 215.734C202.387 223.431 190.583 227.769 172.944 227.621Z" fill="#2FFF2F"/>
</svg>
