<svg width="247" height="207" viewBox="0 0 247 207" fill="none" xmlns="http://www.w3.org/2000/svg">
<g filter="url(#filter0_d_10_30)">
<mask id="path-1-inside-1_10_30" fill="white">
<path fill-rule="evenodd" clip-rule="evenodd" d="M112.095 23.2119C112.582 23.1265 113.046 23.4551 113.129 23.9444L119.917 63.9746L154.476 57.9222C154.963 57.8368 155.427 58.1654 155.51 58.6547L162.298 98.6856L196.857 92.6332C197.344 92.5478 197.808 92.8765 197.891 93.3657L210.767 169.295C210.85 169.781 210.526 170.242 210.042 170.326L134.419 183.571C133.931 183.656 133.468 183.327 133.385 182.838L126.596 142.807L92.037 148.859C91.5497 148.945 91.0858 148.616 91.0028 148.127L84.2147 108.097L49.6561 114.149C49.1688 114.235 48.7049 113.906 48.6219 113.417L35.746 37.4869C35.6636 37.0014 35.9878 36.5407 36.4714 36.456L112.095 23.2119Z"/>
</mask>
<path fill-rule="evenodd" clip-rule="evenodd" d="M112.095 23.2119C112.582 23.1265 113.046 23.4551 113.129 23.9444L119.917 63.9746L154.476 57.9222C154.963 57.8368 155.427 58.1654 155.51 58.6547L162.298 98.6856L196.857 92.6332C197.344 92.5478 197.808 92.8765 197.891 93.3657L210.767 169.295C210.85 169.781 210.526 170.242 210.042 170.326L134.419 183.571C133.931 183.656 133.468 183.327 133.385 182.838L126.596 142.807L92.037 148.859C91.5497 148.945 91.0858 148.616 91.0028 148.127L84.2147 108.097L49.6561 114.149C49.1688 114.235 48.7049 113.906 48.6219 113.417L35.746 37.4869C35.6636 37.0014 35.9878 36.5407 36.4714 36.456L112.095 23.2119Z" fill="#FF4911"/>
<path d="M113.129 23.9444L111.807 24.1686L111.807 24.1686L113.129 23.9444ZM112.095 23.2119L112.326 24.5324L112.326 24.5324L112.095 23.2119ZM119.917 63.9746L118.595 64.1987L118.821 65.5276L120.148 65.2951L119.917 63.9746ZM154.476 57.9222L154.245 56.6016L154.245 56.6016L154.476 57.9222ZM155.51 58.6547L156.832 58.4306L156.832 58.4306L155.51 58.6547ZM162.298 98.6856L160.977 98.9097L161.202 100.239L162.53 100.006L162.298 98.6856ZM196.857 92.6332L197.088 93.9537L197.088 93.9537L196.857 92.6332ZM197.891 93.3657L199.213 93.1416L199.213 93.1416L197.891 93.3657ZM210.767 169.295L209.446 169.52L209.446 169.52L210.767 169.295ZM210.042 170.326L210.273 171.647L210.273 171.647L210.042 170.326ZM134.419 183.571L134.187 182.25L134.187 182.25L134.419 183.571ZM133.385 182.838L132.063 183.062L132.063 183.062L133.385 182.838ZM126.596 142.807L127.918 142.583L127.693 141.254L126.365 141.486L126.596 142.807ZM92.037 148.859L91.8057 147.539L91.8057 147.539L92.037 148.859ZM91.0028 148.127L92.3246 147.903V147.903L91.0028 148.127ZM84.2147 108.097L85.5364 107.873L85.3111 106.544L83.9834 106.776L84.2147 108.097ZM49.6561 114.149L49.8874 115.47L49.8874 115.47L49.6561 114.149ZM48.6219 113.417L47.3002 113.641L47.3002 113.641L48.6219 113.417ZM35.746 37.4869L34.4242 37.7111L34.4242 37.7111L35.746 37.4869ZM36.4714 36.456L36.7026 37.7766L36.7026 37.7766L36.4714 36.456ZM114.451 23.7203C114.244 22.5022 113.087 21.6771 111.863 21.8914L112.326 24.5324C112.077 24.576 111.848 24.4081 111.807 24.1686L114.451 23.7203ZM121.239 63.7505L114.451 23.7203L111.807 24.1686L118.595 64.1987L121.239 63.7505ZM154.245 56.6016L119.686 62.6541L120.148 65.2951L154.707 59.2427L154.245 56.6016ZM156.832 58.4306C156.625 57.2124 155.468 56.3874 154.245 56.6016L154.707 59.2427C154.458 59.2863 154.229 59.1184 154.188 58.8789L156.832 58.4306ZM163.62 98.4615L156.832 58.4306L154.188 58.8789L160.977 98.9097L163.62 98.4615ZM162.53 100.006L197.088 93.9537L196.626 91.3127L162.067 97.3651L162.53 100.006ZM197.088 93.9537C196.84 93.9973 196.61 93.8294 196.57 93.5899L199.213 93.1416C199.007 91.9235 197.849 91.0984 196.626 91.3127L197.088 93.9537ZM196.57 93.5899L209.446 169.52L212.089 169.071L199.213 93.1416L196.57 93.5899ZM209.446 169.52C209.405 169.282 209.564 169.049 209.811 169.006L210.273 171.647C211.487 171.434 212.294 170.28 212.089 169.071L209.446 169.52ZM209.811 169.006L134.187 182.25L134.65 184.891L210.273 171.647L209.811 169.006ZM134.187 182.25C134.436 182.206 134.666 182.374 134.706 182.614L132.063 183.062C132.269 184.28 133.427 185.105 134.65 184.891L134.187 182.25ZM134.706 182.614L127.918 142.583L125.274 143.031L132.063 183.062L134.706 182.614ZM92.2683 150.18L126.827 144.127L126.365 141.486L91.8057 147.539L92.2683 150.18ZM89.681 148.351C89.8876 149.569 91.045 150.394 92.2683 150.18L91.8057 147.539C92.0544 147.495 92.2839 147.663 92.3246 147.903L89.681 148.351ZM82.8929 108.321L89.681 148.351L92.3246 147.903L85.5364 107.873L82.8929 108.321ZM49.8874 115.47L84.4459 109.417L83.9834 106.776L49.4249 112.829L49.8874 115.47ZM47.3002 113.641C47.5067 114.859 48.6641 115.684 49.8874 115.47L49.4249 112.829C49.6736 112.785 49.9031 112.953 49.9437 113.193L47.3002 113.641ZM34.4242 37.7111L47.3002 113.641L49.9437 113.193L37.0677 37.2628L34.4242 37.7111ZM36.2401 35.1355C35.0261 35.3481 34.2192 36.5022 34.4242 37.7111L37.0677 37.2628C37.1081 37.5006 36.9494 37.7333 36.7026 37.7766L36.2401 35.1355ZM111.863 21.8914L36.2401 35.1355L36.7026 37.7766L112.326 24.5324L111.863 21.8914Z" fill="black" mask="url(#path-1-inside-1_10_30)"/>
</g>
<defs>
<filter id="filter0_d_10_30" x="35.7332" y="23.1984" width="177.728" height="162.173" filterUnits="userSpaceOnUse" color-interpolation-filters="sRGB">
<feFlood flood-opacity="0" result="BackgroundImageFix"/>
<feColorMatrix in="SourceAlpha" type="matrix" values="0 0 0 0 0 0 0 0 0 0 0 0 0 0 0 0 0 0 127 0" result="hardAlpha"/>
<feOffset dx="2.68125" dy="1.7875"/>
<feComposite in2="hardAlpha" operator="out"/>
<feColorMatrix type="matrix" values="0 0 0 0 0 0 0 0 0 0 0 0 0 0 0 0 0 0 1 0"/>
<feBlend mode="normal" in2="BackgroundImageFix" result="effect1_dropShadow_10_30"/>
<feBlend mode="normal" in="SourceGraphic" in2="effect1_dropShadow_10_30" result="shape"/>
</filter>
</defs>
</svg>
